<?xml version="1.0" encoding="UTF-8" standalone="no"?>
<!-- Created with Inkscape (http://www.inkscape.org/) -->
<svg xmlns:dc="http://purl.org/dc/elements/1.1/" xmlns:cc="http://creativecommons.org/ns#" xmlns:rdf="http://www.w3.org/1999/02/22-rdf-syntax-ns#" xmlns:svg="http://www.w3.org/2000/svg" xmlns="http://www.w3.org/2000/svg" xmlns:sodipodi="http://sodipodi.sourceforge.net/DTD/sodipodi-0.dtd" xmlns:inkscape="http://www.inkscape.org/namespaces/inkscape" width="392.1109mm" height="318.457mm" viewBox="0 0 1389.3693 1128.3909" id="svg2" version="1.1" inkscape:version="0.91 r13725" sodipodi:docname="35c5-logo-contour.svg">
  <defs id="defs4"/>
  <sodipodi:namedview id="base" pagecolor="#ffffff" bordercolor="#666666" borderopacity="1.0" inkscape:pageopacity="0.0" inkscape:pageshadow="2" inkscape:zoom="0.49497475" inkscape:cx="343.1998" inkscape:cy="461.91726" inkscape:document-units="px" inkscape:current-layer="layer1" showgrid="false" fit-margin-top="0" fit-margin-left="0" fit-margin-right="0" fit-margin-bottom="0" inkscape:window-width="1920" inkscape:window-height="1017" inkscape:window-x="-8" inkscape:window-y="-8" inkscape:window-maximized="1"/>
  <metadata id="metadata7">
    <rdf:RDF>
      <cc:Work rdf:about="">
        <dc:format>image/svg+xml</dc:format>
        <dc:type rdf:resource="http://purl.org/dc/dcmitype/StillImage"/>
        <dc:title/>
      </cc:Work>
    </rdf:RDF>
  </metadata>
  <g inkscape:label="Ebene 1" inkscape:groupmode="layer" id="layer1" transform="translate(336.31479,32.17466)">
    <path style="fill:#000000" d="m 380.88946,1095.304 c -31.11627,-5.6881 -54.18435,-26.1739 -61.48238,-54.5997 -2.50115,-9.7421 -2.53473,-27.7146 -0.0699,-37.3695 6.6543,-26.06458 27.35151,-46.01078 55.10982,-53.11008 13.08515,-3.3467 32.89115,-3.3467 45.9763,0 28.61859,7.3194 49.55252,28.2489 55.31997,55.30838 2.25357,10.5732 1.63838,29.4226 -1.2598,38.6009 -7.2015,22.8062 -25.2463,40.6067 -48.76017,48.1 -11.21121,3.5727 -33.67091,5.1107 -44.83391,3.07 z m 26.78721,-39.0143 c 6.98459,-2.0927 15.13601,-9.7694 18.63032,-17.5454 4.11755,-9.163 4.1499,-25.1965 0.0678,-33.6113 -13.35244,-27.52448 -50.93059,-24.80718 -59.57692,4.3081 -2.37455,7.996 -2.37212,17.3993 0.006,25.4091 2.29474,7.7273 10.51329,17.4071 17.4574,20.5614 5.81184,2.64 16.2301,3.0307 23.41484,0.8781 z m 552.25855,39.4813 c -2.40625,-0.2688 -9.57812,-0.8275 -15.9375,-1.2416 l -11.5625,-0.753 0,-17.9947 0,-17.9948 11.5625,0.9239 c 6.35938,0.5081 21.77,0.9239 34.24587,0.9239 20.55277,0 22.93031,-0.2237 25.31251,-2.3813 3.2517,-2.9449 3.3802,-7.1766 0.3025,-9.9618 -1.2796,-1.158 -12.21684,-4.5995 -24.305,-7.6477 -25.65163,-6.4685 -29.17675,-7.8067 -37.88525,-14.3817 -9.64613,-7.2829 -13.60875,-16.0295 -13.60613,-30.03278 0,-9.5471 0.43513,-11.5352 4.16725,-19.1163 6.64725,-13.5025 19.91125,-22.5309 39.1705,-26.6621 7.46563,-1.6014 14.13209,-1.8226 36.03533,-1.1955 14.7812,0.4232 29.8281,1.1256 33.4375,1.5609 l 6.5625,0.7915 0,18.0246 c 0,11.1584 -0.4558,17.7431 -1.1963,17.2854 -2.057,-1.2713 -45.1637,-2.7368 -55.95694,-1.9024 -11.59072,0.896 -15.34684,3.0765 -15.34684,8.9091 0,5.2208 3.45675,6.8149 25.73428,11.86748 23.8135,5.401 30.3108,7.8123 38.925,14.4461 9.4715,7.2939 13.4524,15.9218 13.46,29.1728 0,8.8151 -0.4905,11.0344 -4.1026,18.3717 -6.3776,12.9546 -18.1578,21.8618 -35.4304,26.7894 -6.5141,1.8584 -43.1674,3.3624 -53.58628,2.1989 z m -1205.93751,-2.6945 -14.0625,-0.3987 0,-6.8341 0,-6.834 -20.3125,0.01 -20.3125,0.01 -2.7511,4.8188 c -2.7966,4.8979 -9.1194,8.9112 -14.0405,8.9112 -4.3569,0 -10.7284,-3.2116 -13.5907,-6.8504 -3.8528,-4.898 -4.5495,-10.4574 -2.0831,-16.6217 2.9305,-7.3238 8.7745,-10.7705 16.933,-9.9865 6.5982,0.634 10.2367,3.0522 13.1925,8.7681 l 1.7791,3.4405 20.5929,0 20.5929,0 0,-51.25 0,-51.24998 -20.9449,0 -20.9448,0 -1.6257,3.6726 c -2.2137,5.001 -11.2634,9.3816 -17.1139,8.284 -5.918,-1.1102 -11.5418,-6.1938 -13.2837,-12.0076 -1.9711,-6.5792 1.24,-15.3676 6.8693,-18.8002 8.5088,-5.1884 19.4804,-2.2315 23.9758,6.4615 l 1.8821,3.6397 20.5929,0 20.5929,0 0,-5 0,-5 19.6875,0.01 19.6875,0.01 23.125,38.0896 c 12.7188,20.94928 23.4063,38.08638 23.75,38.08248 0.3438,0 10.7268,-17.1474 23.07354,-38.09658 l 22.44853,-38.0905 19.73896,0 19.738982,0 0,71.90448 0,71.9045 -21.562502,-0.342 -21.5625,-0.342 -0.625,-32.4726 -0.625,-32.4726 -15.36617,25.958 -15.36614,25.9579 -10.781,-0.3603 -10.7809,-0.3604 -15.1029,-24.375 -15.1029,-24.375 -0.334,31.5625 -0.3339,31.5625 -7.7911,-0.2672 c -4.285,-0.147 -14.1191,-0.4466 -21.8535,-0.666 z m 202.187512,-71.5668 0,-71.24998 57.5,0 57.5,0 0,18.125 0,18.125 -34.41235,0 -34.4123398,0 0.34984,15.93748 0.34985,15.9375 13.3838098,0.3542 13.38381,0.3542 1.80071,-3.4821 c 4.01803,-7.7701 11.64733,-11.2311 19.87394,-9.0159 3.55189,0.9564 5.86673,2.7712 8.74706,6.8576 l 3.91692,5.557 24.75938,0 24.759368,0 0,-34.37498 0,-34.375 19.6875,0.01 19.6875,0.01 23.125,38.0988 c 12.71875,20.95438 23.40625,38.09618 23.75,38.09288 0.34375,0 10.74701,-17.1521 23.11835,-38.10838 l 22.49336,-38.1033 19.69414,0 19.69415,0 0,71.24998 0,71.25 -21.8539,0 -21.8539,0 -0.3336,-32.1804 -0.3336,-32.1804 -15.38315,25.9781 -15.38314,25.978 -10.7353,-0.3602 -10.73528,-0.3601 -14.29458,-23.125 c -7.86202,-12.7188 -14.81185,-23.6594 -15.44406,-24.3125 -0.70034,-0.7235 -1.14949,10.8765 -1.14949,29.6875 l 0,30.875 -21.875,0 -21.875,0 0,-33.125 0,-33.125 -25.473348,0 -25.47335,0 -1.61454,3.8978 c -2.22729,5.3771 -7.97655,8.5918 -15.37626,8.5975 -5.23105,0 -6.64536,-0.5782 -10.3125,-4.2453 -2.3375,-2.3375 -4.25,-5.15 -4.25,-6.25 0,-1.7174 -2.03125,-2 -14.375,-2 l -14.3749998,0 0,15.625 0,15.625 35.6249998,0 35.625,0 0,17.5 0,17.5 -58.75,0 -58.75,0 0,-71.25 z m 553.749998,-0.1129 0,-71.36288 42.1875,0.5374 c 45.51674,0.5799 49.53544,1.0854 63.04266,7.93 9.63149,4.8807 18.86015,14.2567 22.98844,23.3555 2.88633,6.3614 3.62339,9.9825 4.0473,19.88348 0.83843,19.583 -4.59399,31.9414 -18.67733,42.49 -3.69246,2.7657 -6.84569,5.1515 -7.00718,5.3018 -0.16149,0.1503 6.19315,9.7973 14.12144,21.4379 l 14.41506,21.1647 -24.0846,0.3405 c -13.24654,0.1873 -24.77503,0.075 -25.61889,-0.2483 -0.84385,-0.3238 -6.636,-8.2114 -12.87144,-17.528 l -11.33715,-16.9392 -6.85291,0 -6.8529,0 0,17.5 0,17.5 -23.75,0 -23.75,0 0,-71.363 z m 75.63778,-1.6869 c 6.44282,-2.6919 9.61238,-8.5755 9.00935,-16.7236 -0.40311,-5.44638 -1.21042,-7.36738 -4.46534,-10.62498 -3.93984,-3.9431 -4.09405,-3.9801 -18.32753,-4.3966 l -14.35426,-0.4202 0,16.98258 0,16.9826 11.91515,0 c 7.54214,0 13.49605,-0.6606 16.22263,-1.7998 z m 96.86222,1.7998 0,-71.24998 9.375,0 9.375,0 0,-11.0938 0,-11.0937 -3.97802,-0.7956 c -5.42917,-1.0859 -14.39033,-10.5864 -15.48395,-16.416 -1.53413,-8.1775 0.0331,-16.5453 4.04317,-21.5877 4.65405,-5.8521 13.17965,-10.2715 19.74616,-10.2358 9.38882,0.051 19.96572,7.0891 23.09312,15.3664 1.96232,5.1937 1.61571,15.5003 -0.68429,20.3471 -2.58263,5.4425 -9.65784,11.6559 -14.3386,12.592 l -3.64759,0.7296 0,11.0937 0,11.0938 10,0 10,0 0,71.24998 0,71.25 -23.75,0 -23.75,0 0,-71.25 z m 33.22389,-103.07488 c 4.5368,-2.9726 8.4395,-12.1814 7.33146,-17.2993 -3.76361,-17.3836 -26.10269,-20.0096 -33.22616,-3.9058 -2.74366,6.2025 -2.428,10.1506 1.30195,16.284 4.66526,7.6714 16.71522,10.0827 24.59275,4.9211 z m 59.27611,103.07488 0,-71.24998 57.5,0 57.5,0 0,18.125 0,18.125 -34.375,0 -34.375,0 0,8.75 0,8.74998 30.625,0 30.625,0 0,16.875 0,16.875 -30.625,0 -30.625,0 0,10 0,10 35.625,0 35.625,0 0,17.5 0,17.5 -58.75,0 -58.75,0 0,-71.25 z m -929.375,-219.84647 c -6.85825,-1.81685 -13.80421,-6.12969 -19.06671,-11.83882 -10.0511,-10.90418 -9.6237,-7.66543 -10.0447,-76.12723 l -0.3747,-60.9375 -75.5695,0 -75.5694,0 0,-121.25 0,-121.25 75.5432,0 75.5433,0 0.3942,-29.6875 c 0.3931,-29.59513 0.4052,-29.7096 3.8819,-36.7895 6.2127,-12.65134 17.1211,-19.79973 31.66361,-20.74964 11.68554,-0.7633 19.68263,1.88454 27.83845,9.21733 8.58406,7.71782 11.7931,14.84858 12.60493,28.00931 l 0.65542,10.625 49.096152,0.32704 c 45.96423,0.30617 49.1376702,0.18657 49.7470302,-1.875 1.67735,-5.67467 5.67249,-11.27932 10.47999,-14.70204 4.61576,-3.28621 6.3227,-3.75 13.8018298,-3.75 7.48673,0 9.17715,0.46044 13.76755,3.75 5.2494,3.76182 7.67553,7.0386 9.94917,13.4375 l 1.2214,3.4375 60.030938,0 60.03094,0 0,-20 0,-20 89.96077,0 c 71.43934,0 89.84339,0.32169 89.39064,1.5625 -0.9965,2.73104 -4.35141,28.67891 -4.35141,33.65509 l 0,4.78241 76.25,0 76.25,0 0,-10.40233 c 0,-12.09247 2.1949,-19.64146 7.6269,-26.23142 6.14958,-7.4605 13.70198,-11.16656 24.118,-11.83501 11.29026,-0.72458 19.64374,2.50241 26.92439,10.40097 9.91027,10.75139 9.4119,6.42339 9.81727,85.25529 l 0.36155,70.3125 74.32595,0 74.32594,0 0,-36.25 0,-36.25 59.1793,0 59.1793,0 0.81654,-19.6875 c 0.44909,-10.82813 0.81841,-25.07168 0.8207,-31.65233 0.005,-16.12173 2.21396,-22.30523 11.16153,-31.2528 8.01878,-8.01878 15.42902,-11.15737 26.34263,-11.15737 10.92804,0 18.327,3.13731 26.31325,11.15737 10.83763,10.88349 11.56638,14.38781 10.87738,52.31102 -0.45338,24.95699 -0.98575,32.23007 -2.76538,37.78161 -8.43112,26.29921 -27.83897,39.40674 -62.23775,42.03359 l -10.9375,0.83522 0,30.4406 0,30.44059 85.81737,0 85.81737,0 8.03444,-4.49306 c 15.7349,-8.79943 31.3381,-26.59971 37.9687,-43.31476 2.4949,-6.28927 6.517,-18.79341 7.7417,-24.06718 0.3192,-1.375 0.6157,33.21875 0.659,76.875 l 0.079,79.375 -3.0736,-10.625 c -7.1028,-24.55138 -20.8416,-44.99361 -39.5746,-58.88328 l -9.93584,-7.36672 -86.76679,0 -86.76675,0 0,32.38335 0,32.38334 12.1875,0.76646 c 22.21088,1.39683 32.95511,5.04546 42.69675,14.49941 6.64588,6.44958 10.38888,12.56304 14.16275,23.13196 6.181,17.31048 6.578,22.24878 6.578,81.83548 l 0,55.625 -3.71388,6.70528 c -6.89625,12.45108 -18.90149,19.51656 -33.16112,19.51656 -14.25966,0 -26.26481,-7.06548 -33.16112,-19.51656 l -3.71388,-6.70528 -0.35975,-57.8125 -0.35975,-57.8125 -59.95275,0 -59.95275,0 0,-22.5 0,-22.5 -74.375,0 -74.375,0 0,76.81348 c 0,50.56055 -0.46411,78.97754 -1.35794,83.14533 -5.46223,25.46954 -36.84131,35.87243 -55.71855,18.47201 -7.97062,-7.34706 -10.72214,-13.37092 -11.4162,-24.99332 l -0.57852,-9.6875 -123.41729,0 -123.4173,0 -0.83314,7.0887 c -1.66765,14.18911 -10.22616,26.26356 -23.08417,32.56745 -5.92239,2.90355 -8.65359,3.45624 -17.05189,3.45057 -9.10773,-0.006 -10.72497,-0.40477 -18.125,-4.46771 -12.93818,-7.10364 -21.25,-20.3501 -21.25,-33.86589 l 0,-4.77312 -59.75944,0 -59.759438,0 -2.14282,4.8568 c -4.38966,9.9494 -12.39751,15.1432 -23.34795,15.1432 -10.7133498,0 -19.1183598,-5.82925 -22.7045298,-15.74663 l -1.53805,-4.25337 -49.7488802,0 -49.748892,0 0,7.30035 c 0,13.69362 -9.74136,27.70706 -23.125,33.26644 -5.81999,2.41754 -18.34669,3.51819 -23.75,2.08676 z M 26.937572,768.41618 c 4.782,-3.13329 7.10824,-8.96399 6.42271,-16.09847 -0.49625,-5.16448 -1.3698,-6.98047 -4.9252,-10.23874 -5.87466,-5.38374 -11.92067,-6.38483 -19.1765398,-3.17522 -4.60605,2.03748 -6.15265,3.59778 -8.23716,8.31018 -3.26095,7.37193 -2.35285,12.95026 3.0718,18.86957 6.1227398,6.68108 14.8481298,7.57203 22.8443898,2.33268 z M -6.9025678,746.34025 c 1.36919,-6.23386 10.3407,-14.30234 17.6448598,-15.86881 13.08015,-2.80519 26.11345,4.62501 29.77711,16.97574 l 0.83429,2.8125 59.915768,0 59.91576,0 0,-43.125 0,-43.125 -56.875,0 c -44.663328,0 -56.876348,-0.33549 -56.881278,-1.5625 -0.021,-5.23364 -3.88145,-43.93137 -4.92827,-49.40186 -1.35576,-7.08495 -4.6491,-20.24619 -5.84799,-23.37045 -0.65409,-1.70451 6.14124,-1.91519 61.77617,-1.91519 l 62.511078,0 0.48713,-16.5625 c 0.55636,-18.91638 2.62012,-25.04946 11.37507,-33.80441 19.34861,-19.34861 52.01248,-13.57218 64.25764,11.36365 3.49825,7.12379 3.50071,7.1473 3.91059,37.44076 l 0.41013,30.3125 47.40237,0 c 44.85444,0 47.40236,-0.12123 47.40236,-2.25527 0,-1.2404 1.6237,-4.81559 3.60822,-7.94487 6.84944,-10.80044 20.90514,-14.1921 32.54975,-7.8543 l 5.8713,3.19556 55.23537,-37.64998 55.23536,-37.64999 0,-73.67058 0,-73.67057 -76.68783,0 -76.68781,0 -0.81219,11.44202 c -0.4467,6.29313 -0.81217,18.05568 -0.81217,26.13902 l 0,14.69697 -8.4375,-5.69591 c -24.55356,-16.57541 -58.70742,-25.18041 -94.0625,-23.69886 -25.83393,1.08256 -45.90803,8.97465 -62.59534,24.60924 l -7.40466,6.93753 0,-27.215 0,-27.21501 -59.85331,0 -59.853318,0 -3.36444,6.87666 c -9.1303,18.66165 -34.7316798,18.65327 -43.8649098,-0.0144 l -3.37146,-6.89103 -48.9087702,0.32686 -48.908792,0.32688 -0.83101,14.375 c -1.29197,22.34845 -6.52308,35.66086 -18.55663,47.22377 -10.8033,10.38079 -26.38321,16.32822 -46.15797,17.62019 l -11.9544,0.78104 0,30.625 0,30.625 85.457612,0.32123 85.4576,0.32121 7.0424002,-4.0104 c 7.94705,-4.52558 18.1978598,-13.6971 25.3509498,-22.68179 l 4.81645,-6.04975 0,37.1748 0,37.1748 -3.60844,-4.87505 C 14.742432,551.05291 2.8584622,540.00099 -5.8541878,534.14428 l -7.6644202,-5.15207 -85.46058,0.32122 -85.460602,0.32122 0,31.875 0,31.875 10.625,0.78296 c 13.57326,1.00023 20.93567,2.86268 32.08789,8.11718 16.01473,7.54555 25.15415,19.71656 30.63051,40.79081 2.45932,9.46405 2.7222,14.27934 3.20706,58.74655 l 0.52815,48.4375 49.798872,0 49.7988902,0 0.86085,-3.91943 z M 488.68522,643.28052 c 0,-59.67039 -0.47813,-106.79492 -1.08118,-106.5625 -0.59463,0.22916 -24.52447,16.40265 -53.17741,35.94108 -40.44261,27.57782 -51.9082,35.96635 -51.25565,37.5 0.46233,1.08657 1.11521,4.89435 1.45088,8.46175 1.53597,16.32466 -13.76251,29.20897 -30.04418,25.30305 -7.47266,-1.79266 -16.37478,-9.82343 -17.73025,-15.99479 l -0.86085,-3.91943 -47.40069,0 -47.40067,0 0,63.125 0,63.125 123.75,0 123.75,0 0,-106.97916 z m -122.08899,-7.22588 c 6.58223,-2.75022 10.83899,-8.76992 10.83899,-15.32795 0,-11.01012 -6.86884,-17.9537 -17.769,-17.96233 -4.79171,-0.004 -6.70609,0.70833 -10.23619,3.80779 -10.15155,8.91319 -8.35188,23.41875 3.5778,28.83764 6.09229,2.76734 8.26213,2.87031 13.5884,0.64485 z M 23.660312,390.57024 c 11.0671,-5.56031 13.26581,-18.903 4.55107,-27.61774 -4.23636,-4.23636 -5.10905,-4.56782 -12.02616,-4.56782 -6.9171098,0 -7.7897998,0.33146 -12.0261598,4.56783 -8.39647,8.39646 -6.74298,21.02161 3.57723,27.31392 5.0272198,3.06514 10.2303498,3.1644 15.9240198,0.30381 z M 391.81022,183.1794 c -2.75,-0.22551 -7.95312,-0.73392 -11.5625,-1.12981 l -6.5625,-0.7198 0,-18.13437 0,-18.13438 3.4375,0.69273 c 8.73839,1.76096 40.87854,3.38566 51.5625,2.60651 14.68018,-1.07059 18.68157,-2.85744 18.73086,-8.3644 0.0412,-4.6131 -5.10113,-6.98213 -26.43201,-12.17674 -24.90193,-6.06426 -32.53383,-9.17015 -40.43945,-16.4573 -8.29301,-7.64423 -10.93401,-13.459014 -11.5714,-25.477164 -0.6692,-12.61795 2.38515,-21.5166 10.47288,-30.51211 9.55965,-10.63262 22.13163,-16.29674 41.73912,-18.80494 8.68864,-1.11146 57.28251,0.3076 64.6875,1.88903 2.75399,0.58815 2.8125,0.96441 2.8125,18.08412 l 0,17.48348 -10.9375,-0.94479 c -14.21311,-1.22775 -51.20604,-1.21939 -55.60919,0.0126 -4.28798,1.19972 -7.69034,6.16396 -6.59339,9.62015 1.23562,3.89306 5.68312,5.59903 27.45614,10.53161 10.96759,2.48467 23.41199,6.1418 27.65423,8.126994 16.27706,7.61695 23.41931,18.31786 23.45324,35.13891 0.0446,22.16851 -14.72927,38.26866 -41.36834,45.0818 -7.88023,2.01541 -13.3256,2.3832 -32.69264,2.20807 -12.78065,-0.11557 -25.48755,-0.39463 -28.23755,-0.62015 z m 568.67963,-1.6206 c -11.82126,-3.10023 -16.57688,-5.19433 -25.17626,-11.08606 -20.3125,-13.91682 -30.86587,-34.24884 -30.92925,-59.58806 -0.0525,-20.730794 5.601,-36.340494 18.05088,-49.846144 18.61925,-20.19811 42.76525,-27.11922 88.12508,-25.25973 11.6875,0.47912 24.0625,1.26144 27.5,1.7385 l 6.25,0.86737 0.3462,17.72403 0.3463,17.72403 -34.7213,0.40097 -34.72128,0.40097 -6.875,3.88162 c -11.52025,6.50436 -16.85962,17.14079 -16.61375,33.095984 0.22313,14.48448 7.938,26.76389 20.18925,32.13476 5.31988,2.33218 22.65164,2.61916 27.98708,0.46342 l 3.4375,-1.38891 0,-18.15594 0,-18.15593 20.625,0 20.625,0 0,30.47606 0,30.47606 -9.0625,4.42008 c -4.9844,2.43104 -11.875,5.35834 -15.3125,6.5051 -17.9582,5.9909 -44.06508,7.36939 -60.07045,3.17182 z m -1296.80464,-71.38582 0,-71.336704 43.4375,0.41601 43.4375,0.41602 9.8329,3.46065 c 22.5077,7.92154 34.5346,22.53801 36.5706,44.44513 1.7983,19.348214 -5.8215,36.023714 -21.091,46.157044 -2.5781,1.71092 -4.6875,3.50622 -4.6875,3.98956 0,0.48334 5.5215,8.98671 12.2699,18.89639 6.7485,9.90967 13.2819,19.56447 14.5188,21.4551 l 2.2488,3.4375 -25.4562,-0.0521 -25.4563,-0.0521 -12.2395,-18.07287 -12.2396,-18.07288 -6.8229,0 -6.823,0 0,18.125 0,18.125 -23.75,0 -23.75,0 0,-71.3367 z m 76.8321,-2.93983 c 2.4495,-1.02344 5.126,-3.46701 6.3141,-5.76436 2.6208,-5.068154 2.6538,-14.177054 0.066,-18.127144 -3.9686,-6.05681 -7.7493,-7.40144 -22.2016,-7.89611 l -13.5102,-0.46242 0,17.01328 0,17.013284 12.5401,0 c 8.0101,0 14.0761,-0.64177 16.792,-1.77653 z m 75.6679,3.02653 0,-71.250004 58.12501,0 58.125002,0 0,17.48022 0,17.48023 -34.687502,0.33227 -34.6875,0.33228 -0.36961,8.4375 -0.36962,8.4375 30.68212,0 30.682112,0 0,17.500004 0,17.5 -30.625002,0 -30.625,0 0,9.375 0,9.375 36.25,0 36.250002,0 0,18.125 0,18.125 -59.375002,0 -59.37501,0 0,-71.25 z m 137.500012,0 0,-71.250004 58.125,0 58.125,0 0,17.47991 0,17.47991 -34.0625,0.33259 -34.0624998,0.33259 -0.35098,15.3125 -0.35097,15.312504 13.0615198,0 13.06153,0 2.72262,-4.4053 c 5.909,-9.560974 18.31945,-10.856674 25.80029,-2.693674 5.28594,5.767974 6.41176,11.765494 3.3724,17.965624 -6.42414,13.10488 -23.02522,13.78115 -29.79326,1.21367 l -2.46666,-4.58032 -12.84074,0 -12.8407498,0 0,34.375 0,34.375 -23.7500002,0 -23.75,0 0,-71.25 z m 131.25,-0.0868 0,-71.336704 43.437498,0.45536 c 41.41106,0.43413 43.8457,0.59046 52.1875,3.35113 11.9159,3.94349 18.18329,7.83745 25.50043,15.84357 13.56381,14.84098 16.47018,39.07506 6.95867,58.023344 -3.13984,6.255 -11.81419,15.46545 -17.24791,18.31388 -2.34217,1.22779 -3.28964,2.50446 -2.80192,3.77542 0.40529,1.05619 6.54258,10.44004 13.63842,20.85301 7.09585,10.41298 13.31177,19.63581 13.81318,20.49519 0.71708,1.22897 -4.50716,1.55697 -24.4746,1.53664 l -25.38627,-0.0258 -11.875,-18.07327 -11.875,-18.07327 -7.1875,-0.0259 -7.1875,-0.0259 0,18.125 0,18.125 -23.75,0 -23.749998,0 0,-71.3367 z m 78.877648,-4.0215 c 7.88756,-5.30783 9.2501,-16.982874 2.86726,-24.568444 -4.02467,-4.78305 -9.65056,-6.30769 -23.30741,-6.31639 l -10.9375,-0.007 0,16.875 0,16.875004 13.56515,0 c 12.06013,0 14.03638,-0.31711 17.8125,-2.8582 z m 73.62235,4.10825 0,-71.250004 58.125,0 58.125,0 0,17.48022 0,17.48023 -34.6875,0.33227 -34.6875,0.33228 -0.36961,8.4375 -0.36962,8.4375 30.68212,0 30.68211,0 0,17.500004 0,17.5 -30.625,0 -30.625,0 0,9.375 0,9.375 36.25,0 36.25,0 0,18.125 0,18.125 -59.375,0 -59.375,0 0,-71.25 z m 272.5,0 0,-71.250004 23.75,0 23.75,0 0,25 0,25 22.5,0 22.5,0 0,-25 0,-25 23.75,0 23.75,0 0,71.250004 0,71.25 -23.75,0 -23.75,0 0,-26.25 0,-26.25 -22.5,0 -22.5,0 0,26.25 0,26.25 -23.75,0 -23.75,0 0,-71.25 z m 163.75,0 0,-71.250004 10,0 10,0 0,-11.15069 0,-11.15068 -3.84285,-0.84403 c -8.73188,-1.91784 -17.35225,-13.7063995 -17.35225,-23.7295995 0,-17.7823205 19.09069,-29.5331105 35.71521,-21.9836105 7.57643,3.44059 14.2446,13.68819 14.22291,21.8576305 -0.0255,9.62519 -7.90504,20.9005395 -16.3803,23.4397895 l -4.86272,1.4569 0,11.05215 0,11.05214 10,0 10,0 0,71.250004 0,71.25 -23.75,0 -23.75,0 0,-71.25 z M 706.84043,7.2297665 c 7.13505,-4.67506 9.9075,-14.64732 6.22795,-22.4013905 -5.68187,-11.97366 -23.80617,-12.9752 -30.68376,-1.69557 -9.38206,15.3870905 9.44166,33.93461 24.45581,24.0969605 z m 38.09479,103.0298635 0,-71.250004 19.77789,0 19.77789,0 26.78461,32.01354 26.78461,32.013544 0.3336,-32.013544 0.3336,-32.01354 23.1039,0 23.1039,0 0,71.250004 0,71.25 -19.14641,0 -19.1464,0 -27.4161,-32.74435 -27.41609,-32.74434 -0.33325,32.74434 -0.33326,32.74435 -23.10424,0 -23.10425,0 0,-71.25 z" id="path4169" inkscape:connector-curvature="0"/>
  </g>
</svg>